# xmcd
#
# Track frame offsets:
#	150
#	5775
#	21444
#	38625
#	72802
#	93050
#	110272
#	129507
#	143150
#	167047
#	187590
#
# Disc length: 2892 seconds
# Revision: 0
# Processed by: cddbd v1.5.2PL0 Copyright (c) Steve Scherf et al.
# Submitted via: dBpowerAMP V12.0
#
DISCID=840b4a0b
DTITLE=Susan Tomelty - Presents Belfast Live
DYEAR=1996
DGENRE=Blues
TTITLE0=Afterlives (Part II)
TTITLE1=Coming Home
TTITLE2=Dream Dancing
TTITLE3=My Lagan Love - The Gold Ring
TTITLE4=Hold On
TTITLE5=You Send Me
TTITLE6=Heaven Knows I Did
TTITLE7=Susie's Blues
TTITLE8=Cornerstone
TTITLE9=Times and Tides Of Love
TTITLE10=She Moves Through The Fair
EXTD=
EXTT0=
EXTT1=
EXTT2=
EXTT3=
EXTT4=
EXTT5=
EXTT6=
EXTT7=
EXTT8=
EXTT9=
EXTT10=
PLAYORDER=
